# xmcd
#
# Track frame offsets: 
#        150
#        4302
#        14557
#        29603
#        41962
#        51678
#        64688
#        80244
#        95356
#        109411
#        122315
#        132572
#        148927
#        162565
#
# Disc length: 2337 seconds
#
# Revision: 6
# Processed by: cddbd v1.5.2PL0 Copyright (c) Steve Scherf et al.
# Submitted via: ExactAudioCopyFreeDBPlugin 1.0
#
DISCID=d9091f0e
DTITLE=Loretta Lynn - Full Circle
DYEAR=2016
DGENRE=Country
TTITLE0={Whispering Sea Introduction}
TTITLE1=Whispering Sea
TTITLE2=Secret Love
TTITLE3=Who's Gonna Miss Me?
TTITLE4=Black Jack David
TTITLE5=Everybody Wants To Go To Heaven
TTITLE6=Always On My Mind
TTITLE7=Wine Into Water
TTITLE8=In The Pines
TTITLE9=Band Of Gold
TTITLE10=Fist City
TTITLE11=I Never Will Marry
TTITLE12=Loretta Lynn and Elvis Costello - Everything It Takes
TTITLE13=Loretta Lynn and Willie Nelson - Lay Me Down
EXTD=
EXTT0=
EXTT1=
EXTT2=
EXTT3=
EXTT4=
EXTT5=
EXTT6=
EXTT7=
EXTT8=
EXTT9=
EXTT10=
EXTT11=
EXTT12=
EXTT13=
PLAYORDER=
